<svg width="636" height="51" viewBox="0 0 636 51" fill="none" xmlns="http://www.w3.org/2000/svg">
<circle cx="25" cy="16" r="15.5" fill="#C0C0C0" stroke="#C0C0C0"/>
<line x1="41" y1="15.5" x2="121" y2="15.5" stroke="#808080"/>
<line x1="153" y1="15.5" x2="233" y2="15.5" stroke="#808080"/>
<line x1="265" y1="15.5" x2="345" y2="15.5" stroke="#808080"/>
<line x1="489" y1="15.5" x2="569" y2="15.5" stroke="#808080"/>
<line x1="377" y1="15.5" x2="457" y2="15.5" stroke="#808080"/>
<path d="M26.2955 9.36364V21H24.8864V10.8409H24.8182L21.9773 12.7273V11.2955L24.8864 9.36364H26.2955Z" fill="#5A5A5A"/>
<circle cx="585" cy="16" r="15.5" stroke="#808080"/>
<path d="M585.068 21.1591C584.591 21.1515 584.114 21.0606 583.636 20.8864C583.159 20.7121 582.723 20.4186 582.33 20.0057C581.936 19.589 581.619 19.0265 581.381 18.3182C581.142 17.6061 581.023 16.7121 581.023 15.6364C581.023 14.6061 581.119 13.6932 581.312 12.8977C581.506 12.0985 581.786 11.4261 582.153 10.8807C582.521 10.3314 582.964 9.91477 583.483 9.63068C584.006 9.34659 584.595 9.20455 585.25 9.20455C585.902 9.20455 586.481 9.33523 586.989 9.59659C587.5 9.85417 587.917 10.214 588.239 10.6761C588.561 11.1383 588.769 11.6705 588.864 12.2727H587.477C587.348 11.75 587.098 11.3163 586.727 10.9716C586.356 10.6269 585.864 10.4545 585.25 10.4545C584.348 10.4545 583.638 10.8466 583.119 11.6307C582.604 12.4148 582.345 13.5152 582.341 14.9318H582.432C582.644 14.6098 582.896 14.3352 583.188 14.108C583.483 13.8769 583.809 13.6989 584.165 13.5739C584.521 13.4489 584.898 13.3864 585.295 13.3864C585.962 13.3864 586.572 13.553 587.125 13.8864C587.678 14.2159 588.121 14.6723 588.455 15.2557C588.788 15.8352 588.955 16.5 588.955 17.25C588.955 17.9697 588.794 18.6288 588.472 19.2273C588.15 19.822 587.697 20.2955 587.114 20.6477C586.534 20.9962 585.852 21.1667 585.068 21.1591ZM585.068 19.9091C585.545 19.9091 585.973 19.7898 586.352 19.5511C586.735 19.3125 587.036 18.9924 587.256 18.5909C587.479 18.1894 587.591 17.7424 587.591 17.25C587.591 16.7689 587.483 16.3314 587.267 15.9375C587.055 15.5398 586.761 15.2235 586.386 14.9886C586.015 14.7538 585.591 14.6364 585.114 14.6364C584.754 14.6364 584.419 14.7083 584.108 14.8523C583.797 14.9924 583.525 15.1856 583.29 15.4318C583.059 15.678 582.877 15.9602 582.744 16.2784C582.612 16.5928 582.545 16.9242 582.545 17.2727C582.545 17.7348 582.653 18.1667 582.869 18.5682C583.089 18.9697 583.388 19.2936 583.767 19.5398C584.15 19.786 584.583 19.9091 585.068 19.9091Z" fill="#808080"/>
<circle cx="473" cy="16" r="15.5" stroke="#808080"/>
<path d="M472.841 21.1591C472.174 21.1591 471.574 21.0265 471.04 20.7614C470.506 20.4962 470.078 20.1326 469.756 19.6705C469.434 19.2083 469.258 18.6818 469.227 18.0909H470.591C470.644 18.6174 470.883 19.053 471.307 19.3977C471.735 19.7386 472.246 19.9091 472.841 19.9091C473.318 19.9091 473.742 19.7973 474.114 19.5739C474.489 19.3504 474.782 19.0436 474.994 18.6534C475.21 18.2595 475.318 17.8144 475.318 17.3182C475.318 16.8106 475.206 16.358 474.983 15.9602C474.763 15.5587 474.46 15.2424 474.074 15.0114C473.688 14.7803 473.246 14.6629 472.75 14.6591C472.394 14.6553 472.028 14.7102 471.653 14.8239C471.278 14.9337 470.97 15.0758 470.727 15.25L469.409 15.0909L470.114 9.36364H476.159V10.6136H471.295L470.886 14.0455H470.955C471.193 13.8561 471.492 13.6989 471.852 13.5739C472.212 13.4489 472.587 13.3864 472.977 13.3864C473.689 13.3864 474.324 13.5568 474.881 13.8977C475.441 14.2348 475.881 14.697 476.199 15.2841C476.521 15.8712 476.682 16.5417 476.682 17.2955C476.682 18.0379 476.515 18.7008 476.182 19.2841C475.852 19.8636 475.398 20.322 474.818 20.6591C474.239 20.9924 473.58 21.1591 472.841 21.1591Z" fill="#808080"/>
<circle cx="361" cy="16" r="15.5" fill="#C0C0C0" stroke="#C0C0C0"/>
<path d="M356.932 18.6136V17.4545L362.045 9.36364H362.886V11.1591H362.318L358.455 17.2727V17.3636H365.341V18.6136H356.932ZM362.409 21V18.2614V17.7216V9.36364H363.75V21H362.409Z" fill="#5A5A5A"/>
<circle cx="249" cy="16" r="15.5" fill="#C0C0C0" stroke="#C0C0C0"/>
<path d="M249.136 21.1591C248.386 21.1591 247.718 21.0303 247.131 20.7727C246.547 20.5152 246.083 20.1572 245.739 19.6989C245.398 19.2367 245.212 18.7008 245.182 18.0909H246.614C246.644 18.4659 246.773 18.7898 247 19.0625C247.227 19.3314 247.525 19.5398 247.892 19.6875C248.259 19.8352 248.667 19.9091 249.114 19.9091C249.614 19.9091 250.057 19.822 250.443 19.6477C250.83 19.4735 251.133 19.2311 251.352 18.9205C251.572 18.6098 251.682 18.25 251.682 17.8409C251.682 17.4129 251.576 17.036 251.364 16.7102C251.152 16.3807 250.841 16.1231 250.432 15.9375C250.023 15.7519 249.523 15.6591 248.932 15.6591H248V14.4091H248.932C249.394 14.4091 249.799 14.3258 250.148 14.1591C250.5 13.9924 250.775 13.7576 250.972 13.4545C251.172 13.1515 251.273 12.7955 251.273 12.3864C251.273 11.9924 251.186 11.6496 251.011 11.358C250.837 11.0663 250.591 10.839 250.273 10.6761C249.958 10.5133 249.587 10.4318 249.159 10.4318C248.758 10.4318 248.379 10.5057 248.023 10.6534C247.67 10.7973 247.383 11.0076 247.159 11.2841C246.936 11.5568 246.814 11.8864 246.795 12.2727H245.432C245.455 11.6629 245.638 11.1288 245.983 10.6705C246.328 10.2083 246.778 9.84848 247.335 9.59091C247.896 9.33333 248.511 9.20455 249.182 9.20455C249.902 9.20455 250.519 9.35038 251.034 9.64205C251.549 9.92992 251.945 10.3106 252.222 10.7841C252.498 11.2576 252.636 11.7689 252.636 12.3182C252.636 12.9735 252.464 13.5322 252.119 13.9943C251.778 14.4564 251.314 14.7765 250.727 14.9545V15.0455C251.462 15.1667 252.036 15.4792 252.449 15.983C252.862 16.483 253.068 17.1023 253.068 17.8409C253.068 18.4735 252.896 19.0417 252.551 19.5455C252.21 20.0455 251.744 20.4394 251.153 20.7273C250.563 21.0152 249.89 21.1591 249.136 21.1591Z" fill="#5A5A5A"/>
<circle cx="137" cy="16" r="15.5" fill="#C0C0C0" stroke="#C0C0C0"/>
<path d="M133.205 21V19.9773L137.045 15.7727C137.496 15.2803 137.867 14.8523 138.159 14.4886C138.451 14.1212 138.667 13.7765 138.807 13.4545C138.951 13.1288 139.023 12.7879 139.023 12.4318C139.023 12.0227 138.924 11.6686 138.727 11.3693C138.534 11.0701 138.269 10.839 137.932 10.6761C137.595 10.5133 137.216 10.4318 136.795 10.4318C136.348 10.4318 135.958 10.5246 135.625 10.7102C135.295 10.892 135.04 11.1477 134.858 11.4773C134.68 11.8068 134.591 12.1932 134.591 12.6364H133.25C133.25 11.9545 133.407 11.3561 133.722 10.8409C134.036 10.3258 134.464 9.92424 135.006 9.63636C135.551 9.34848 136.163 9.20455 136.841 9.20455C137.523 9.20455 138.127 9.34848 138.653 9.63636C139.18 9.92424 139.593 10.3125 139.892 10.8011C140.191 11.2898 140.341 11.8333 140.341 12.4318C140.341 12.8598 140.263 13.2784 140.108 13.6875C139.956 14.0928 139.691 14.5455 139.312 15.0455C138.938 15.5417 138.417 16.1477 137.75 16.8636L135.136 19.6591V19.75H140.545V21H133.205Z" fill="#5A5A5A"/>
<path d="M1.40909 47V35.3636H5.47727C6.28788 35.3636 6.95644 35.5038 7.48295 35.7841C8.00947 36.0606 8.40152 36.4337 8.65909 36.9034C8.91667 37.3693 9.04545 37.8864 9.04545 38.4545C9.04545 38.9545 8.95644 39.3674 8.77841 39.6932C8.60417 40.0189 8.37311 40.2765 8.08523 40.4659C7.80114 40.6553 7.49242 40.7955 7.15909 40.8864V41C7.51515 41.0227 7.87311 41.1477 8.23295 41.375C8.5928 41.6023 8.89394 41.928 9.13636 42.3523C9.37879 42.7765 9.5 43.2955 9.5 43.9091C9.5 44.4924 9.36742 45.017 9.10227 45.483C8.83712 45.9489 8.41856 46.3182 7.84659 46.5909C7.27462 46.8636 6.5303 47 5.61364 47H1.40909ZM2.81818 45.75H5.61364C6.53409 45.75 7.1875 45.572 7.57386 45.2159C7.96402 44.8561 8.15909 44.4205 8.15909 43.9091C8.15909 43.5152 8.05871 43.1515 7.85795 42.8182C7.6572 42.4811 7.37121 42.2121 7 42.0114C6.62879 41.8068 6.18939 41.7045 5.68182 41.7045H2.81818V45.75ZM2.81818 40.4773H5.43182C5.85606 40.4773 6.23864 40.3939 6.57955 40.2273C6.92424 40.0606 7.19697 39.8258 7.39773 39.5227C7.60227 39.2197 7.70455 38.8636 7.70455 38.4545C7.70455 37.9432 7.52652 37.5095 7.17045 37.1534C6.81439 36.7936 6.25 36.6136 5.47727 36.6136H2.81818V40.4773ZM14.2017 47.2045C13.6487 47.2045 13.1468 47.1004 12.696 46.892C12.2453 46.6799 11.8873 46.375 11.6222 45.9773C11.357 45.5758 11.2244 45.0909 11.2244 44.5227C11.2244 44.0227 11.3229 43.6174 11.5199 43.3068C11.7169 42.9924 11.9801 42.7462 12.3097 42.5682C12.6392 42.3902 13.0028 42.2576 13.4006 42.1705C13.8021 42.0795 14.2055 42.0076 14.6108 41.9545C15.1411 41.8864 15.571 41.8352 15.9006 41.8011C16.2339 41.7633 16.4763 41.7008 16.6278 41.6136C16.7831 41.5265 16.8608 41.375 16.8608 41.1591V41.1136C16.8608 40.553 16.7074 40.1174 16.4006 39.8068C16.0975 39.4962 15.6373 39.3409 15.0199 39.3409C14.3797 39.3409 13.8778 39.4811 13.5142 39.7614C13.1506 40.0417 12.8949 40.3409 12.7472 40.6591L11.4744 40.2045C11.7017 39.6742 12.0047 39.2614 12.3835 38.9659C12.7661 38.6667 13.1828 38.4583 13.6335 38.3409C14.0881 38.2197 14.535 38.1591 14.9744 38.1591C15.2547 38.1591 15.5767 38.1932 15.9403 38.2614C16.3078 38.3258 16.6619 38.4602 17.0028 38.6648C17.3475 38.8693 17.6335 39.178 17.8608 39.5909C18.0881 40.0038 18.2017 40.5568 18.2017 41.25V47H16.8608V45.8182H16.7926C16.7017 46.0076 16.5502 46.2102 16.3381 46.4261C16.1259 46.642 15.8438 46.8258 15.4915 46.9773C15.1392 47.1288 14.7093 47.2045 14.2017 47.2045ZM14.4062 46C14.9366 46 15.3835 45.8958 15.7472 45.6875C16.1146 45.4792 16.3911 45.2102 16.5767 44.8807C16.7661 44.5511 16.8608 44.2045 16.8608 43.8409V42.6136C16.804 42.6818 16.679 42.7443 16.4858 42.8011C16.2964 42.8542 16.0767 42.9015 15.8267 42.9432C15.5805 42.9811 15.34 43.0152 15.1051 43.0455C14.8741 43.072 14.6866 43.0947 14.5426 43.1136C14.1941 43.1591 13.8684 43.233 13.5653 43.3352C13.2661 43.4337 13.0237 43.5833 12.8381 43.7841C12.6563 43.9811 12.5653 44.25 12.5653 44.5909C12.5653 45.0568 12.7377 45.4091 13.0824 45.6477C13.4309 45.8826 13.8722 46 14.4062 46ZM26.831 40.2273L25.6264 40.5682C25.5507 40.3674 25.4389 40.1723 25.2912 39.983C25.1473 39.7898 24.9503 39.6307 24.7003 39.5057C24.4503 39.3807 24.1302 39.3182 23.7401 39.3182C23.206 39.3182 22.7609 39.4413 22.4048 39.6875C22.0526 39.9299 21.8764 40.2386 21.8764 40.6136C21.8764 40.947 21.9976 41.2102 22.2401 41.4034C22.4825 41.5966 22.8613 41.7576 23.3764 41.8864L24.6719 42.2045C25.4522 42.3939 26.0336 42.6837 26.4162 43.0739C26.7988 43.4602 26.9901 43.9583 26.9901 44.5682C26.9901 45.0682 26.8461 45.5152 26.5582 45.9091C26.2741 46.303 25.8764 46.6136 25.3651 46.8409C24.8537 47.0682 24.259 47.1818 23.581 47.1818C22.6908 47.1818 21.9541 46.9886 21.3707 46.6023C20.7874 46.2159 20.4181 45.6515 20.2628 44.9091L21.5355 44.5909C21.6567 45.0606 21.8859 45.4129 22.223 45.6477C22.5639 45.8826 23.009 46 23.5582 46C24.1832 46 24.6795 45.8674 25.0469 45.6023C25.4181 45.3333 25.6037 45.0114 25.6037 44.6364C25.6037 44.3333 25.4976 44.0795 25.2855 43.875C25.0734 43.6667 24.7476 43.5114 24.3082 43.4091L22.8537 43.0682C22.0545 42.8788 21.4673 42.5852 21.0923 42.1875C20.7211 41.786 20.5355 41.2841 20.5355 40.6818C20.5355 40.1894 20.6738 39.7538 20.9503 39.375C21.2306 38.9962 21.6113 38.6989 22.0923 38.483C22.5772 38.267 23.1264 38.1591 23.7401 38.1591C24.6037 38.1591 25.2817 38.3485 25.7741 38.7273C26.2704 39.1061 26.6226 39.6061 26.831 40.2273ZM29.0085 47V38.2727H30.3494V47H29.0085ZM29.6903 36.8182C29.429 36.8182 29.2036 36.7292 29.0142 36.5511C28.8286 36.3731 28.7358 36.1591 28.7358 35.9091C28.7358 35.6591 28.8286 35.4451 29.0142 35.267C29.2036 35.089 29.429 35 29.6903 35C29.9517 35 30.1752 35.089 30.3608 35.267C30.5502 35.4451 30.6449 35.6591 30.6449 35.9091C30.6449 36.1591 30.5502 36.3731 30.3608 36.5511C30.1752 36.7292 29.9517 36.8182 29.6903 36.8182ZM36.3509 47.1818C35.5327 47.1818 34.8281 46.9886 34.2372 46.6023C33.6463 46.2159 33.1918 45.6837 32.8736 45.0057C32.5554 44.3277 32.3963 43.553 32.3963 42.6818C32.3963 41.7955 32.5592 41.0133 32.8849 40.3352C33.2145 39.6534 33.6728 39.1212 34.2599 38.7386C34.8509 38.3523 35.5402 38.1591 36.3281 38.1591C36.9418 38.1591 37.4948 38.2727 37.9872 38.5C38.4796 38.7273 38.883 39.0455 39.1974 39.4545C39.5118 39.8636 39.7069 40.3409 39.7827 40.8864H38.4418C38.3395 40.4886 38.1122 40.1364 37.7599 39.8295C37.4115 39.5189 36.9418 39.3636 36.3509 39.3636C35.8281 39.3636 35.3698 39.5 34.9759 39.7727C34.5857 40.0417 34.2808 40.4223 34.0611 40.9148C33.8452 41.4034 33.7372 41.9773 33.7372 42.6364C33.7372 43.3106 33.8433 43.8977 34.0554 44.3977C34.2713 44.8977 34.5743 45.286 34.9645 45.5625C35.3584 45.839 35.8205 45.9773 36.3509 45.9773C36.6993 45.9773 37.0156 45.9167 37.2997 45.7955C37.5838 45.6742 37.8243 45.5 38.0213 45.2727C38.2183 45.0455 38.3584 44.7727 38.4418 44.4545H39.7827C39.7069 44.9697 39.5194 45.4337 39.2202 45.8466C38.9247 46.2557 38.5327 46.5814 38.044 46.8239C37.5592 47.0625 36.9948 47.1818 36.3509 47.1818ZM47.9247 40.2273L46.7202 40.5682C46.6444 40.3674 46.5327 40.1723 46.3849 39.983C46.241 39.7898 46.044 39.6307 45.794 39.5057C45.544 39.3807 45.224 39.3182 44.8338 39.3182C44.2997 39.3182 43.8546 39.4413 43.4986 39.6875C43.1463 39.9299 42.9702 40.2386 42.9702 40.6136C42.9702 40.947 43.0914 41.2102 43.3338 41.4034C43.5762 41.5966 43.955 41.7576 44.4702 41.8864L45.7656 42.2045C46.5459 42.3939 47.1274 42.6837 47.5099 43.0739C47.8925 43.4602 48.0838 43.9583 48.0838 44.5682C48.0838 45.0682 47.9399 45.5152 47.652 45.9091C47.3679 46.303 46.9702 46.6136 46.4588 46.8409C45.9474 47.0682 45.3527 47.1818 44.6747 47.1818C43.7846 47.1818 43.0478 46.9886 42.4645 46.6023C41.8812 46.2159 41.5118 45.6515 41.3565 44.9091L42.6293 44.5909C42.7505 45.0606 42.9796 45.4129 43.3168 45.6477C43.6577 45.8826 44.1027 46 44.652 46C45.277 46 45.7732 45.8674 46.1406 45.6023C46.5118 45.3333 46.6974 45.0114 46.6974 44.6364C46.6974 44.3333 46.5914 44.0795 46.3793 43.875C46.1671 43.6667 45.8414 43.5114 45.402 43.4091L43.9474 43.0682C43.1482 42.8788 42.5611 42.5852 42.1861 42.1875C41.8149 41.786 41.6293 41.2841 41.6293 40.6818C41.6293 40.1894 41.7675 39.7538 42.044 39.375C42.3243 38.9962 42.705 38.6989 43.1861 38.483C43.6709 38.267 44.2202 38.1591 44.8338 38.1591C45.6974 38.1591 46.3755 38.3485 46.8679 38.7273C47.3641 39.1061 47.7164 39.6061 47.9247 40.2273Z" fill="#808080"/>
<path d="M100.409 47V35.3636H107.432V36.6136H101.818V40.5455H107.068V41.7955H101.818V45.75H107.523V47H100.409ZM113.085 47.1818C112.358 47.1818 111.716 46.9981 111.159 46.6307C110.602 46.2595 110.167 45.7367 109.852 45.0625C109.538 44.3845 109.381 43.5833 109.381 42.6591C109.381 41.7424 109.538 40.947 109.852 40.2727C110.167 39.5985 110.604 39.0777 111.165 38.7102C111.725 38.3428 112.373 38.1591 113.108 38.1591C113.676 38.1591 114.125 38.2538 114.455 38.4432C114.788 38.6288 115.042 38.8409 115.216 39.0795C115.394 39.3144 115.532 39.5076 115.631 39.6591H115.744V35.3636H117.085V47H115.79V45.6591H115.631C115.532 45.8182 115.392 46.0189 115.21 46.2614C115.028 46.5 114.769 46.714 114.432 46.9034C114.095 47.089 113.646 47.1818 113.085 47.1818ZM113.267 45.9773C113.805 45.9773 114.259 45.8371 114.631 45.5568C115.002 45.2727 115.284 44.8807 115.477 44.3807C115.67 43.8769 115.767 43.2955 115.767 42.6364C115.767 41.9848 115.672 41.4148 115.483 40.9261C115.294 40.4337 115.013 40.0511 114.642 39.7784C114.271 39.5019 113.813 39.3636 113.267 39.3636C112.699 39.3636 112.225 39.5095 111.847 39.8011C111.472 40.089 111.189 40.4811 111 40.9773C110.814 41.4697 110.722 42.0227 110.722 42.6364C110.722 43.2576 110.816 43.822 111.006 44.3295C111.199 44.8333 111.483 45.2348 111.858 45.5341C112.237 45.8295 112.706 45.9773 113.267 45.9773ZM125.227 43.4318V38.2727H126.568V47H125.227V45.5227H125.136C124.932 45.9659 124.614 46.3428 124.182 46.6534C123.75 46.9602 123.205 47.1136 122.545 47.1136C122 47.1136 121.515 46.9943 121.091 46.7557C120.667 46.5133 120.333 46.1496 120.091 45.6648C119.848 45.1761 119.727 44.5606 119.727 43.8182V38.2727H121.068V43.7273C121.068 44.3636 121.246 44.8712 121.602 45.25C121.962 45.6288 122.42 45.8182 122.977 45.8182C123.311 45.8182 123.65 45.733 123.994 45.5625C124.343 45.392 124.634 45.1307 124.869 44.7784C125.108 44.4261 125.227 43.9773 125.227 43.4318ZM132.57 47.1818C131.751 47.1818 131.047 46.9886 130.456 46.6023C129.865 46.2159 129.411 45.6837 129.092 45.0057C128.774 44.3277 128.615 43.553 128.615 42.6818C128.615 41.7955 128.778 41.0133 129.104 40.3352C129.433 39.6534 129.892 39.1212 130.479 38.7386C131.07 38.3523 131.759 38.1591 132.547 38.1591C133.161 38.1591 133.714 38.2727 134.206 38.5C134.698 38.7273 135.102 39.0455 135.416 39.4545C135.731 39.8636 135.926 40.3409 136.001 40.8864H134.661C134.558 40.4886 134.331 40.1364 133.979 39.8295C133.63 39.5189 133.161 39.3636 132.57 39.3636C132.047 39.3636 131.589 39.5 131.195 39.7727C130.804 40.0417 130.5 40.4223 130.28 40.9148C130.064 41.4034 129.956 41.9773 129.956 42.6364C129.956 43.3106 130.062 43.8977 130.274 44.3977C130.49 44.8977 130.793 45.286 131.183 45.5625C131.577 45.839 132.039 45.9773 132.57 45.9773C132.918 45.9773 133.234 45.9167 133.518 45.7955C133.803 45.6742 134.043 45.5 134.24 45.2727C134.437 45.0455 134.577 44.7727 134.661 44.4545H136.001C135.926 44.9697 135.738 45.4337 135.439 45.8466C135.143 46.2557 134.751 46.5814 134.263 46.8239C133.778 47.0625 133.214 47.1818 132.57 47.1818ZM140.53 47.2045C139.977 47.2045 139.475 47.1004 139.024 46.892C138.573 46.6799 138.215 46.375 137.95 45.9773C137.685 45.5758 137.553 45.0909 137.553 44.5227C137.553 44.0227 137.651 43.6174 137.848 43.3068C138.045 42.9924 138.308 42.7462 138.638 42.5682C138.967 42.3902 139.331 42.2576 139.729 42.1705C140.13 42.0795 140.534 42.0076 140.939 41.9545C141.469 41.8864 141.899 41.8352 142.229 41.8011C142.562 41.7633 142.804 41.7008 142.956 41.6136C143.111 41.5265 143.189 41.375 143.189 41.1591V41.1136C143.189 40.553 143.036 40.1174 142.729 39.8068C142.426 39.4962 141.965 39.3409 141.348 39.3409C140.708 39.3409 140.206 39.4811 139.842 39.7614C139.479 40.0417 139.223 40.3409 139.075 40.6591L137.803 40.2045C138.03 39.6742 138.333 39.2614 138.712 38.9659C139.094 38.6667 139.511 38.4583 139.962 38.3409C140.416 38.2197 140.863 38.1591 141.303 38.1591C141.583 38.1591 141.905 38.1932 142.268 38.2614C142.636 38.3258 142.99 38.4602 143.331 38.6648C143.676 38.8693 143.962 39.178 144.189 39.5909C144.416 40.0038 144.53 40.5568 144.53 41.25V47H143.189V45.8182H143.121C143.03 46.0076 142.878 46.2102 142.666 46.4261C142.454 46.642 142.172 46.8258 141.82 46.9773C141.467 47.1288 141.037 47.2045 140.53 47.2045ZM140.734 46C141.265 46 141.712 45.8958 142.075 45.6875C142.443 45.4792 142.719 45.2102 142.905 44.8807C143.094 44.5511 143.189 44.2045 143.189 43.8409V42.6136C143.132 42.6818 143.007 42.7443 142.814 42.8011C142.625 42.8542 142.405 42.9015 142.155 42.9432C141.909 42.9811 141.668 43.0152 141.433 43.0455C141.202 43.072 141.015 43.0947 140.871 43.1136C140.522 43.1591 140.196 43.233 139.893 43.3352C139.594 43.4337 139.352 43.5833 139.166 43.7841C138.984 43.9811 138.893 44.25 138.893 44.5909C138.893 45.0568 139.066 45.4091 139.411 45.6477C139.759 45.8826 140.2 46 140.734 46ZM150.773 38.2727V39.4091H146.25V38.2727H150.773ZM147.568 36.1818H148.909V44.5C148.909 44.8788 148.964 45.1629 149.074 45.3523C149.188 45.5379 149.331 45.6629 149.506 45.7273C149.684 45.7879 149.871 45.8182 150.068 45.8182C150.216 45.8182 150.337 45.8106 150.432 45.7955C150.527 45.7765 150.602 45.7614 150.659 45.75L150.932 46.9545C150.841 46.9886 150.714 47.0227 150.551 47.0568C150.388 47.0947 150.182 47.1136 149.932 47.1136C149.553 47.1136 149.182 47.0322 148.818 46.8693C148.458 46.7064 148.159 46.4583 147.92 46.125C147.686 45.7917 147.568 45.3712 147.568 44.8636V36.1818ZM152.79 47V38.2727H154.131V47H152.79ZM153.472 36.8182C153.21 36.8182 152.985 36.7292 152.795 36.5511C152.61 36.3731 152.517 36.1591 152.517 35.9091C152.517 35.6591 152.61 35.4451 152.795 35.267C152.985 35.089 153.21 35 153.472 35C153.733 35 153.956 35.089 154.142 35.267C154.331 35.4451 154.426 35.6591 154.426 35.9091C154.426 36.1591 154.331 36.3731 154.142 36.5511C153.956 36.7292 153.733 36.8182 153.472 36.8182ZM160.132 47.1818C159.344 47.1818 158.653 46.9943 158.058 46.6193C157.467 46.2443 157.005 45.7197 156.672 45.0455C156.342 44.3712 156.178 43.5833 156.178 42.6818C156.178 41.7727 156.342 40.9792 156.672 40.3011C157.005 39.6231 157.467 39.0966 158.058 38.7216C158.653 38.3466 159.344 38.1591 160.132 38.1591C160.92 38.1591 161.609 38.3466 162.2 38.7216C162.795 39.0966 163.257 39.6231 163.587 40.3011C163.92 40.9792 164.087 41.7727 164.087 42.6818C164.087 43.5833 163.92 44.3712 163.587 45.0455C163.257 45.7197 162.795 46.2443 162.2 46.6193C161.609 46.9943 160.92 47.1818 160.132 47.1818ZM160.132 45.9773C160.731 45.9773 161.223 45.8239 161.609 45.517C161.996 45.2102 162.282 44.8068 162.467 44.3068C162.653 43.8068 162.746 43.2652 162.746 42.6818C162.746 42.0985 162.653 41.5549 162.467 41.0511C162.282 40.5473 161.996 40.1402 161.609 39.8295C161.223 39.5189 160.731 39.3636 160.132 39.3636C159.534 39.3636 159.041 39.5189 158.655 39.8295C158.268 40.1402 157.982 40.5473 157.797 41.0511C157.611 41.5549 157.518 42.0985 157.518 42.6818C157.518 43.2652 157.611 43.8068 157.797 44.3068C157.982 44.8068 158.268 45.2102 158.655 45.517C159.041 45.8239 159.534 45.9773 160.132 45.9773ZM167.474 41.75V47H166.134V38.2727H167.429V39.6364H167.543C167.747 39.1932 168.058 38.8371 168.474 38.5682C168.891 38.2955 169.429 38.1591 170.088 38.1591C170.679 38.1591 171.196 38.2803 171.639 38.5227C172.082 38.7614 172.427 39.125 172.673 39.6136C172.92 40.0985 173.043 40.7121 173.043 41.4545V47H171.702V41.5455C171.702 40.8598 171.524 40.3258 171.168 39.9432C170.812 39.5568 170.323 39.3636 169.702 39.3636C169.274 39.3636 168.891 39.4564 168.554 39.642C168.221 39.8277 167.957 40.0985 167.764 40.4545C167.571 40.8106 167.474 41.2424 167.474 41.75Z" fill="#808080"/>
<path d="M219.409 47V35.3636H223.341C224.254 35.3636 225 35.5284 225.58 35.858C226.163 36.1837 226.595 36.625 226.875 37.1818C227.155 37.7386 227.295 38.3598 227.295 39.0455C227.295 39.7311 227.155 40.3542 226.875 40.9148C226.598 41.4754 226.17 41.9223 225.591 42.2557C225.011 42.5852 224.269 42.75 223.364 42.75H220.545V41.5H223.318C223.943 41.5 224.445 41.392 224.824 41.1761C225.203 40.9602 225.477 40.6686 225.648 40.3011C225.822 39.9299 225.909 39.5114 225.909 39.0455C225.909 38.5795 225.822 38.1629 225.648 37.7955C225.477 37.428 225.201 37.1402 224.818 36.9318C224.436 36.7197 223.928 36.6136 223.295 36.6136H220.818V47H219.409ZM229.384 47V38.2727H230.679V39.5909H230.77C230.929 39.1591 231.217 38.8087 231.634 38.5398C232.05 38.2708 232.52 38.1364 233.043 38.1364C233.141 38.1364 233.264 38.1383 233.412 38.142C233.56 38.1458 233.671 38.1515 233.747 38.1591V39.5227C233.702 39.5114 233.598 39.4943 233.435 39.4716C233.276 39.4451 233.107 39.4318 232.929 39.4318C232.505 39.4318 232.126 39.5208 231.793 39.6989C231.463 39.8731 231.202 40.1155 231.009 40.4261C230.819 40.733 230.724 41.0833 230.724 41.4773V47H229.384ZM238.616 47.1818C237.829 47.1818 237.137 46.9943 236.543 46.6193C235.952 46.2443 235.49 45.7197 235.156 45.0455C234.827 44.3712 234.662 43.5833 234.662 42.6818C234.662 41.7727 234.827 40.9792 235.156 40.3011C235.49 39.6231 235.952 39.0966 236.543 38.7216C237.137 38.3466 237.829 38.1591 238.616 38.1591C239.404 38.1591 240.094 38.3466 240.685 38.7216C241.279 39.0966 241.741 39.6231 242.071 40.3011C242.404 40.9792 242.571 41.7727 242.571 42.6818C242.571 43.5833 242.404 44.3712 242.071 45.0455C241.741 45.7197 241.279 46.2443 240.685 46.6193C240.094 46.9943 239.404 47.1818 238.616 47.1818ZM238.616 45.9773C239.215 45.9773 239.707 45.8239 240.094 45.517C240.48 45.2102 240.766 44.8068 240.952 44.3068C241.137 43.8068 241.23 43.2652 241.23 42.6818C241.23 42.0985 241.137 41.5549 240.952 41.0511C240.766 40.5473 240.48 40.1402 240.094 39.8295C239.707 39.5189 239.215 39.3636 238.616 39.3636C238.018 39.3636 237.526 39.5189 237.139 39.8295C236.753 40.1402 236.467 40.5473 236.281 41.0511C236.096 41.5549 236.003 42.0985 236.003 42.6818C236.003 43.2652 236.096 43.8068 236.281 44.3068C236.467 44.8068 236.753 45.2102 237.139 45.517C237.526 45.8239 238.018 45.9773 238.616 45.9773ZM244.618 38.2727H245.959V47.6364C245.959 48.1742 245.866 48.6402 245.68 49.0341C245.499 49.428 245.222 49.733 244.851 49.9489C244.483 50.1648 244.019 50.2727 243.459 50.2727C243.413 50.2727 243.368 50.2727 243.322 50.2727C243.277 50.2727 243.232 50.2727 243.186 50.2727V49.0227C243.232 49.0227 243.273 49.0227 243.311 49.0227C243.349 49.0227 243.391 49.0227 243.436 49.0227C243.845 49.0227 244.144 48.9015 244.334 48.6591C244.523 48.4205 244.618 48.0795 244.618 47.6364V38.2727ZM245.277 36.8182C245.016 36.8182 244.79 36.7292 244.601 36.5511C244.415 36.3731 244.322 36.1591 244.322 35.9091C244.322 35.6591 244.415 35.4451 244.601 35.267C244.79 35.089 245.016 35 245.277 35C245.538 35 245.762 35.089 245.947 35.267C246.137 35.4451 246.232 35.6591 246.232 35.9091C246.232 36.1591 246.137 36.3731 245.947 36.5511C245.762 36.7292 245.538 36.8182 245.277 36.8182ZM252.074 47.1818C251.233 47.1818 250.508 46.9962 249.898 46.625C249.292 46.25 248.824 45.7273 248.494 45.0568C248.169 44.3826 248.006 43.5985 248.006 42.7045C248.006 41.8106 248.169 41.0227 248.494 40.3409C248.824 39.6553 249.282 39.1212 249.869 38.7386C250.46 38.3523 251.15 38.1591 251.938 38.1591C252.392 38.1591 252.841 38.2348 253.284 38.3864C253.727 38.5379 254.131 38.7841 254.494 39.125C254.858 39.4621 255.148 39.9091 255.364 40.4659C255.58 41.0227 255.688 41.7083 255.688 42.5227V43.0909H248.96V41.9318H254.324C254.324 41.4394 254.225 41 254.028 40.6136C253.835 40.2273 253.559 39.9223 253.199 39.6989C252.843 39.4754 252.422 39.3636 251.938 39.3636C251.403 39.3636 250.941 39.4962 250.551 39.7614C250.165 40.0227 249.867 40.3636 249.659 40.7841C249.451 41.2045 249.347 41.6553 249.347 42.1364V42.9091C249.347 43.5682 249.46 44.1269 249.688 44.5852C249.919 45.0398 250.239 45.3864 250.648 45.625C251.057 45.8598 251.532 45.9773 252.074 45.9773C252.426 45.9773 252.744 45.928 253.028 45.8295C253.316 45.7273 253.564 45.5758 253.773 45.375C253.981 45.1705 254.142 44.9167 254.256 44.6136L255.551 44.9773C255.415 45.4167 255.186 45.803 254.864 46.1364C254.542 46.4659 254.144 46.7235 253.67 46.9091C253.197 47.0909 252.665 47.1818 252.074 47.1818ZM261.273 47.1818C260.455 47.1818 259.75 46.9886 259.159 46.6023C258.568 46.2159 258.114 45.6837 257.795 45.0057C257.477 44.3277 257.318 43.553 257.318 42.6818C257.318 41.7955 257.481 41.0133 257.807 40.3352C258.136 39.6534 258.595 39.1212 259.182 38.7386C259.773 38.3523 260.462 38.1591 261.25 38.1591C261.864 38.1591 262.417 38.2727 262.909 38.5C263.402 38.7273 263.805 39.0455 264.119 39.4545C264.434 39.8636 264.629 40.3409 264.705 40.8864H263.364C263.261 40.4886 263.034 40.1364 262.682 39.8295C262.333 39.5189 261.864 39.3636 261.273 39.3636C260.75 39.3636 260.292 39.5 259.898 39.7727C259.508 40.0417 259.203 40.4223 258.983 40.9148C258.767 41.4034 258.659 41.9773 258.659 42.6364C258.659 43.3106 258.765 43.8977 258.977 44.3977C259.193 44.8977 259.496 45.286 259.886 45.5625C260.28 45.839 260.742 45.9773 261.273 45.9773C261.621 45.9773 261.938 45.9167 262.222 45.7955C262.506 45.6742 262.746 45.5 262.943 45.2727C263.14 45.0455 263.28 44.7727 263.364 44.4545H264.705C264.629 44.9697 264.441 45.4337 264.142 45.8466C263.847 46.2557 263.455 46.5814 262.966 46.8239C262.481 47.0625 261.917 47.1818 261.273 47.1818ZM270.46 38.2727V39.4091H265.938V38.2727H270.46ZM267.256 36.1818H268.597V44.5C268.597 44.8788 268.652 45.1629 268.761 45.3523C268.875 45.5379 269.019 45.6629 269.193 45.7273C269.371 45.7879 269.559 45.8182 269.756 45.8182C269.903 45.8182 270.025 45.8106 270.119 45.7955C270.214 45.7765 270.29 45.7614 270.347 45.75L270.619 46.9545C270.528 46.9886 270.402 47.0227 270.239 47.0568C270.076 47.0947 269.869 47.1136 269.619 47.1136C269.241 47.1136 268.869 47.0322 268.506 46.8693C268.146 46.7064 267.847 46.4583 267.608 46.125C267.373 45.7917 267.256 45.3712 267.256 44.8636V36.1818ZM278.503 40.2273L277.298 40.5682C277.223 40.3674 277.111 40.1723 276.963 39.983C276.819 39.7898 276.622 39.6307 276.372 39.5057C276.122 39.3807 275.802 39.3182 275.412 39.3182C274.878 39.3182 274.433 39.4413 274.077 39.6875C273.724 39.9299 273.548 40.2386 273.548 40.6136C273.548 40.947 273.67 41.2102 273.912 41.4034C274.154 41.5966 274.533 41.7576 275.048 41.8864L276.344 42.2045C277.124 42.3939 277.705 42.6837 278.088 43.0739C278.471 43.4602 278.662 43.9583 278.662 44.5682C278.662 45.0682 278.518 45.5152 278.23 45.9091C277.946 46.303 277.548 46.6136 277.037 46.8409C276.526 47.0682 275.931 47.1818 275.253 47.1818C274.363 47.1818 273.626 46.9886 273.043 46.6023C272.459 46.2159 272.09 45.6515 271.935 44.9091L273.207 44.5909C273.329 45.0606 273.558 45.4129 273.895 45.6477C274.236 45.8826 274.681 46 275.23 46C275.855 46 276.351 45.8674 276.719 45.6023C277.09 45.3333 277.276 45.0114 277.276 44.6364C277.276 44.3333 277.17 44.0795 276.957 43.875C276.745 43.6667 276.42 43.5114 275.98 43.4091L274.526 43.0682C273.726 42.8788 273.139 42.5852 272.764 42.1875C272.393 41.786 272.207 41.2841 272.207 40.6818C272.207 40.1894 272.346 39.7538 272.622 39.375C272.902 38.9962 273.283 38.6989 273.764 38.483C274.249 38.267 274.798 38.1591 275.412 38.1591C276.276 38.1591 276.954 38.3485 277.446 38.7273C277.942 39.1061 278.295 39.6061 278.503 40.2273Z" fill="#808080"/>
<path d="M344.523 47L341.341 35.3636H342.773L345.205 44.8409H345.318L347.795 35.3636H349.386L351.864 44.8409H351.977L354.409 35.3636H355.841L352.659 47H351.205L348.636 37.7273H348.545L345.977 47H344.523ZM360.148 47.1818C359.36 47.1818 358.669 46.9943 358.074 46.6193C357.483 46.2443 357.021 45.7197 356.688 45.0455C356.358 44.3712 356.193 43.5833 356.193 42.6818C356.193 41.7727 356.358 40.9792 356.688 40.3011C357.021 39.6231 357.483 39.0966 358.074 38.7216C358.669 38.3466 359.36 38.1591 360.148 38.1591C360.936 38.1591 361.625 38.3466 362.216 38.7216C362.811 39.0966 363.273 39.6231 363.602 40.3011C363.936 40.9792 364.102 41.7727 364.102 42.6818C364.102 43.5833 363.936 44.3712 363.602 45.0455C363.273 45.7197 362.811 46.2443 362.216 46.6193C361.625 46.9943 360.936 47.1818 360.148 47.1818ZM360.148 45.9773C360.746 45.9773 361.239 45.8239 361.625 45.517C362.011 45.2102 362.297 44.8068 362.483 44.3068C362.669 43.8068 362.761 43.2652 362.761 42.6818C362.761 42.0985 362.669 41.5549 362.483 41.0511C362.297 40.5473 362.011 40.1402 361.625 39.8295C361.239 39.5189 360.746 39.3636 360.148 39.3636C359.549 39.3636 359.057 39.5189 358.67 39.8295C358.284 40.1402 357.998 40.5473 357.812 41.0511C357.627 41.5549 357.534 42.0985 357.534 42.6818C357.534 43.2652 357.627 43.8068 357.812 44.3068C357.998 44.8068 358.284 45.2102 358.67 45.517C359.057 45.8239 359.549 45.9773 360.148 45.9773ZM366.149 47V38.2727H367.445V39.5909H367.536C367.695 39.1591 367.982 38.8087 368.399 38.5398C368.816 38.2708 369.286 38.1364 369.808 38.1364C369.907 38.1364 370.03 38.1383 370.178 38.142C370.325 38.1458 370.437 38.1515 370.513 38.1591V39.5227C370.467 39.5114 370.363 39.4943 370.2 39.4716C370.041 39.4451 369.873 39.4318 369.695 39.4318C369.27 39.4318 368.892 39.5208 368.558 39.6989C368.229 39.8731 367.967 40.1155 367.774 40.4261C367.585 40.733 367.49 41.0833 367.49 41.4773V47H366.149ZM373.352 43.8182L373.33 42.1591H373.602L377.42 38.2727H379.08L375.011 42.3864H374.898L373.352 43.8182ZM372.102 47V35.3636H373.443V47H372.102ZM377.648 47L374.239 42.6818L375.193 41.75L379.352 47H377.648Z" fill="#808080"/>
<path d="M460.773 38.2727C460.705 37.697 460.428 37.25 459.943 36.9318C459.458 36.6136 458.864 36.4545 458.159 36.4545C457.644 36.4545 457.193 36.5379 456.807 36.7045C456.424 36.8712 456.125 37.1004 455.909 37.392C455.697 37.6837 455.591 38.0152 455.591 38.3864C455.591 38.697 455.665 38.964 455.812 39.1875C455.964 39.4072 456.157 39.5909 456.392 39.7386C456.627 39.8826 456.873 40.0019 457.131 40.0966C457.388 40.1875 457.625 40.2614 457.841 40.3182L459.023 40.6364C459.326 40.7159 459.663 40.8258 460.034 40.9659C460.409 41.1061 460.767 41.2973 461.108 41.5398C461.453 41.7784 461.737 42.0852 461.96 42.4602C462.184 42.8352 462.295 43.2955 462.295 43.8409C462.295 44.4697 462.131 45.0379 461.801 45.5455C461.475 46.053 460.998 46.4564 460.369 46.7557C459.744 47.0549 458.985 47.2045 458.091 47.2045C457.258 47.2045 456.536 47.0701 455.926 46.8011C455.32 46.5322 454.843 46.1572 454.494 45.6761C454.15 45.1951 453.955 44.6364 453.909 44H455.364C455.402 44.4394 455.549 44.803 455.807 45.0909C456.068 45.375 456.398 45.5871 456.795 45.7273C457.197 45.8636 457.629 45.9318 458.091 45.9318C458.629 45.9318 459.112 45.8447 459.54 45.6705C459.968 45.4924 460.307 45.2462 460.557 44.9318C460.807 44.6136 460.932 44.2424 460.932 43.8182C460.932 43.4318 460.824 43.1174 460.608 42.875C460.392 42.6326 460.108 42.4356 459.756 42.2841C459.403 42.1326 459.023 42 458.614 41.8864L457.182 41.4773C456.273 41.2159 455.553 40.8428 455.023 40.358C454.492 39.8731 454.227 39.2386 454.227 38.4545C454.227 37.803 454.403 37.2348 454.756 36.75C455.112 36.2614 455.589 35.8826 456.188 35.6136C456.79 35.3409 457.462 35.2045 458.205 35.2045C458.955 35.2045 459.621 35.339 460.205 35.608C460.788 35.8731 461.25 36.2367 461.591 36.6989C461.936 37.161 462.117 37.6856 462.136 38.2727H460.773ZM465.68 43.8182L465.658 42.1591H465.93L469.749 38.2727H471.408L467.339 42.3864H467.226L465.68 43.8182ZM464.43 47V35.3636H465.771V47H464.43ZM469.976 47L466.567 42.6818L467.521 41.75L471.68 47H469.976ZM473.134 47V38.2727H474.474V47H473.134ZM473.815 36.8182C473.554 36.8182 473.329 36.7292 473.139 36.5511C472.954 36.3731 472.861 36.1591 472.861 35.9091C472.861 35.6591 472.954 35.4451 473.139 35.267C473.329 35.089 473.554 35 473.815 35C474.077 35 474.3 35.089 474.486 35.267C474.675 35.4451 474.77 35.6591 474.77 35.9091C474.77 36.1591 474.675 36.3731 474.486 36.5511C474.3 36.7292 474.077 36.8182 473.815 36.8182ZM478.271 35.3636V47H476.93V35.3636H478.271ZM482.068 35.3636V47H480.727V35.3636H482.068ZM490.706 40.2273L489.501 40.5682C489.426 40.3674 489.314 40.1723 489.166 39.983C489.022 39.7898 488.825 39.6307 488.575 39.5057C488.325 39.3807 488.005 39.3182 487.615 39.3182C487.081 39.3182 486.636 39.4413 486.28 39.6875C485.928 39.9299 485.751 40.2386 485.751 40.6136C485.751 40.947 485.873 41.2102 486.115 41.4034C486.357 41.5966 486.736 41.7576 487.251 41.8864L488.547 42.2045C489.327 42.3939 489.909 42.6837 490.291 43.0739C490.674 43.4602 490.865 43.9583 490.865 44.5682C490.865 45.0682 490.721 45.5152 490.433 45.9091C490.149 46.303 489.751 46.6136 489.24 46.8409C488.729 47.0682 488.134 47.1818 487.456 47.1818C486.566 47.1818 485.829 46.9886 485.246 46.6023C484.662 46.2159 484.293 45.6515 484.138 44.9091L485.411 44.5909C485.532 45.0606 485.761 45.4129 486.098 45.6477C486.439 45.8826 486.884 46 487.433 46C488.058 46 488.554 45.8674 488.922 45.6023C489.293 45.3333 489.479 45.0114 489.479 44.6364C489.479 44.3333 489.373 44.0795 489.161 43.875C488.948 43.6667 488.623 43.5114 488.183 43.4091L486.729 43.0682C485.929 42.8788 485.342 42.5852 484.967 42.1875C484.596 41.786 484.411 41.2841 484.411 40.6818C484.411 40.1894 484.549 39.7538 484.825 39.375C485.106 38.9962 485.486 38.6989 485.967 38.483C486.452 38.267 487.001 38.1591 487.615 38.1591C488.479 38.1591 489.157 38.3485 489.649 38.7273C490.145 39.1061 490.498 39.6061 490.706 40.2273Z" fill="#808080"/>
<path d="M544.773 39H543.364C543.28 38.5947 543.134 38.2386 542.926 37.9318C542.722 37.625 542.472 37.3674 542.176 37.1591C541.884 36.947 541.561 36.7879 541.205 36.6818C540.848 36.5758 540.477 36.5227 540.091 36.5227C539.386 36.5227 538.748 36.7008 538.176 37.0568C537.608 37.4129 537.155 37.9375 536.818 38.6307C536.485 39.3239 536.318 40.1742 536.318 41.1818C536.318 42.1894 536.485 43.0398 536.818 43.733C537.155 44.4261 537.608 44.9508 538.176 45.3068C538.748 45.6629 539.386 45.8409 540.091 45.8409C540.477 45.8409 540.848 45.7879 541.205 45.6818C541.561 45.5758 541.884 45.4186 542.176 45.2102C542.472 44.9981 542.722 44.7386 542.926 44.4318C543.134 44.1212 543.28 43.7652 543.364 43.3636H544.773C544.667 43.9583 544.473 44.4905 544.193 44.9602C543.913 45.4299 543.564 45.8295 543.148 46.1591C542.731 46.4848 542.263 46.733 541.744 46.9034C541.229 47.0739 540.678 47.1591 540.091 47.1591C539.098 47.1591 538.216 46.9167 537.443 46.4318C536.67 45.947 536.063 45.2576 535.619 44.3636C535.176 43.4697 534.955 42.4091 534.955 41.1818C534.955 39.9545 535.176 38.8939 535.619 38C536.063 37.1061 536.67 36.4167 537.443 35.9318C538.216 35.447 539.098 35.2045 540.091 35.2045C540.678 35.2045 541.229 35.2898 541.744 35.4602C542.263 35.6307 542.731 35.8807 543.148 36.2102C543.564 36.536 543.913 36.9337 544.193 37.4034C544.473 37.8693 544.667 38.4015 544.773 39ZM550.527 47.1818C549.686 47.1818 548.961 46.9962 548.351 46.625C547.745 46.25 547.277 45.7273 546.947 45.0568C546.622 44.3826 546.459 43.5985 546.459 42.7045C546.459 41.8106 546.622 41.0227 546.947 40.3409C547.277 39.6553 547.735 39.1212 548.322 38.7386C548.913 38.3523 549.603 38.1591 550.391 38.1591C550.845 38.1591 551.294 38.2348 551.737 38.3864C552.18 38.5379 552.584 38.7841 552.947 39.125C553.311 39.4621 553.601 39.9091 553.817 40.4659C554.033 41.0227 554.141 41.7083 554.141 42.5227V43.0909H547.413V41.9318H552.777C552.777 41.4394 552.679 41 552.482 40.6136C552.288 40.2273 552.012 39.9223 551.652 39.6989C551.296 39.4754 550.875 39.3636 550.391 39.3636C549.857 39.3636 549.394 39.4962 549.004 39.7614C548.618 40.0227 548.321 40.3636 548.112 40.7841C547.904 41.2045 547.8 41.6553 547.8 42.1364V42.9091C547.8 43.5682 547.913 44.1269 548.141 44.5852C548.372 45.0398 548.692 45.3864 549.101 45.625C549.51 45.8598 549.985 45.9773 550.527 45.9773C550.879 45.9773 551.197 45.928 551.482 45.8295C551.769 45.7273 552.018 45.5758 552.226 45.375C552.434 45.1705 552.595 44.9167 552.709 44.6136L554.004 44.9773C553.868 45.4167 553.639 45.803 553.317 46.1364C552.995 46.4659 552.597 46.7235 552.124 46.9091C551.65 47.0909 551.118 47.1818 550.527 47.1818ZM556.18 47V38.2727H557.476V39.5909H557.567C557.726 39.1591 558.014 38.8087 558.43 38.5398C558.847 38.2708 559.317 38.1364 559.839 38.1364C559.938 38.1364 560.061 38.1383 560.209 38.142C560.357 38.1458 560.468 38.1515 560.544 38.1591V39.5227C560.499 39.5114 560.394 39.4943 560.232 39.4716C560.072 39.4451 559.904 39.4318 559.726 39.4318C559.302 39.4318 558.923 39.5208 558.589 39.6989C558.26 39.8731 557.999 40.1155 557.805 40.4261C557.616 40.733 557.521 41.0833 557.521 41.4773V47H556.18ZM566.476 38.2727V39.4091H561.953V38.2727H566.476ZM563.271 36.1818H564.612V44.5C564.612 44.8788 564.667 45.1629 564.777 45.3523C564.891 45.5379 565.035 45.6629 565.209 45.7273C565.387 45.7879 565.574 45.8182 565.771 45.8182C565.919 45.8182 566.04 45.8106 566.135 45.7955C566.23 45.7765 566.305 45.7614 566.362 45.75L566.635 46.9545C566.544 46.9886 566.417 47.0227 566.254 47.0568C566.091 47.0947 565.885 47.1136 565.635 47.1136C565.256 47.1136 564.885 47.0322 564.521 46.8693C564.161 46.7064 563.862 46.4583 563.624 46.125C563.389 45.7917 563.271 45.3712 563.271 44.8636V36.1818ZM568.493 47V38.2727H569.834V47H568.493ZM569.175 36.8182C568.913 36.8182 568.688 36.7292 568.499 36.5511C568.313 36.3731 568.22 36.1591 568.22 35.9091C568.22 35.6591 568.313 35.4451 568.499 35.267C568.688 35.089 568.913 35 569.175 35C569.436 35 569.66 35.089 569.845 35.267C570.035 35.4451 570.129 35.6591 570.129 35.9091C570.129 36.1591 570.035 36.3731 569.845 36.5511C569.66 36.7292 569.436 36.8182 569.175 36.8182ZM576.176 38.2727V39.4091H571.472V38.2727H576.176ZM572.881 47V37.0682C572.881 36.5682 572.998 36.1515 573.233 35.8182C573.468 35.4848 573.773 35.2348 574.148 35.0682C574.523 34.9015 574.919 34.8182 575.335 34.8182C575.665 34.8182 575.934 34.8447 576.142 34.8977C576.35 34.9508 576.506 35 576.608 35.0455L576.222 36.2045C576.153 36.1818 576.059 36.1534 575.938 36.1193C575.82 36.0852 575.665 36.0682 575.472 36.0682C575.028 36.0682 574.708 36.1799 574.511 36.4034C574.318 36.6269 574.222 36.9545 574.222 37.3864V47H572.881ZM578.055 47V38.2727H579.396V47H578.055ZM578.737 36.8182C578.476 36.8182 578.25 36.7292 578.061 36.5511C577.875 36.3731 577.783 36.1591 577.783 35.9091C577.783 35.6591 577.875 35.4451 578.061 35.267C578.25 35.089 578.476 35 578.737 35C578.999 35 579.222 35.089 579.408 35.267C579.597 35.4451 579.692 35.6591 579.692 35.9091C579.692 36.1591 579.597 36.3731 579.408 36.5511C579.222 36.7292 578.999 36.8182 578.737 36.8182ZM585.398 47.1818C584.58 47.1818 583.875 46.9886 583.284 46.6023C582.693 46.2159 582.239 45.6837 581.92 45.0057C581.602 44.3277 581.443 43.553 581.443 42.6818C581.443 41.7955 581.606 41.0133 581.932 40.3352C582.261 39.6534 582.72 39.1212 583.307 38.7386C583.898 38.3523 584.587 38.1591 585.375 38.1591C585.989 38.1591 586.542 38.2727 587.034 38.5C587.527 38.7273 587.93 39.0455 588.244 39.4545C588.559 39.8636 588.754 40.3409 588.83 40.8864H587.489C587.386 40.4886 587.159 40.1364 586.807 39.8295C586.458 39.5189 585.989 39.3636 585.398 39.3636C584.875 39.3636 584.417 39.5 584.023 39.7727C583.633 40.0417 583.328 40.4223 583.108 40.9148C582.892 41.4034 582.784 41.9773 582.784 42.6364C582.784 43.3106 582.89 43.8977 583.102 44.3977C583.318 44.8977 583.621 45.286 584.011 45.5625C584.405 45.839 584.867 45.9773 585.398 45.9773C585.746 45.9773 586.062 45.9167 586.347 45.7955C586.631 45.6742 586.871 45.5 587.068 45.2727C587.265 45.0455 587.405 44.7727 587.489 44.4545H588.83C588.754 44.9697 588.566 45.4337 588.267 45.8466C587.972 46.2557 587.58 46.5814 587.091 46.8239C586.606 47.0625 586.042 47.1818 585.398 47.1818ZM593.358 47.2045C592.805 47.2045 592.303 47.1004 591.852 46.892C591.402 46.6799 591.044 46.375 590.778 45.9773C590.513 45.5758 590.381 45.0909 590.381 44.5227C590.381 44.0227 590.479 43.6174 590.676 43.3068C590.873 42.9924 591.136 42.7462 591.466 42.5682C591.795 42.3902 592.159 42.2576 592.557 42.1705C592.958 42.0795 593.362 42.0076 593.767 41.9545C594.297 41.8864 594.727 41.8352 595.057 41.8011C595.39 41.7633 595.633 41.7008 595.784 41.6136C595.939 41.5265 596.017 41.375 596.017 41.1591V41.1136C596.017 40.553 595.864 40.1174 595.557 39.8068C595.254 39.4962 594.794 39.3409 594.176 39.3409C593.536 39.3409 593.034 39.4811 592.67 39.7614C592.307 40.0417 592.051 40.3409 591.903 40.6591L590.631 40.2045C590.858 39.6742 591.161 39.2614 591.54 38.9659C591.922 38.6667 592.339 38.4583 592.79 38.3409C593.244 38.2197 593.691 38.1591 594.131 38.1591C594.411 38.1591 594.733 38.1932 595.097 38.2614C595.464 38.3258 595.818 38.4602 596.159 38.6648C596.504 38.8693 596.79 39.178 597.017 39.5909C597.244 40.0038 597.358 40.5568 597.358 41.25V47H596.017V45.8182H595.949C595.858 46.0076 595.706 46.2102 595.494 46.4261C595.282 46.642 595 46.8258 594.648 46.9773C594.295 47.1288 593.866 47.2045 593.358 47.2045ZM593.562 46C594.093 46 594.54 45.8958 594.903 45.6875C595.271 45.4792 595.547 45.2102 595.733 44.8807C595.922 44.5511 596.017 44.2045 596.017 43.8409V42.6136C595.96 42.6818 595.835 42.7443 595.642 42.8011C595.453 42.8542 595.233 42.9015 594.983 42.9432C594.737 42.9811 594.496 43.0152 594.261 43.0455C594.03 43.072 593.843 43.0947 593.699 43.1136C593.35 43.1591 593.025 43.233 592.722 43.3352C592.422 43.4337 592.18 43.5833 591.994 43.7841C591.813 43.9811 591.722 44.25 591.722 44.5909C591.722 45.0568 591.894 45.4091 592.239 45.6477C592.587 45.8826 593.028 46 593.562 46ZM603.601 38.2727V39.4091H599.078V38.2727H603.601ZM600.396 36.1818H601.737V44.5C601.737 44.8788 601.792 45.1629 601.902 45.3523C602.016 45.5379 602.16 45.6629 602.334 45.7273C602.512 45.7879 602.699 45.8182 602.896 45.8182C603.044 45.8182 603.165 45.8106 603.26 45.7955C603.355 45.7765 603.43 45.7614 603.487 45.75L603.76 46.9545C603.669 46.9886 603.542 47.0227 603.379 47.0568C603.216 47.0947 603.01 47.1136 602.76 47.1136C602.381 47.1136 602.01 47.0322 601.646 46.8693C601.286 46.7064 600.987 46.4583 600.749 46.125C600.514 45.7917 600.396 45.3712 600.396 44.8636V36.1818ZM605.618 47V38.2727H606.959V47H605.618ZM606.3 36.8182C606.038 36.8182 605.813 36.7292 605.624 36.5511C605.438 36.3731 605.345 36.1591 605.345 35.9091C605.345 35.6591 605.438 35.4451 605.624 35.267C605.813 35.089 606.038 35 606.3 35C606.561 35 606.785 35.089 606.97 35.267C607.16 35.4451 607.254 35.6591 607.254 35.9091C607.254 36.1591 607.16 36.3731 606.97 36.5511C606.785 36.7292 606.561 36.8182 606.3 36.8182ZM612.96 47.1818C612.172 47.1818 611.481 46.9943 610.886 46.6193C610.295 46.2443 609.833 45.7197 609.5 45.0455C609.17 44.3712 609.006 43.5833 609.006 42.6818C609.006 41.7727 609.17 40.9792 609.5 40.3011C609.833 39.6231 610.295 39.0966 610.886 38.7216C611.481 38.3466 612.172 38.1591 612.96 38.1591C613.748 38.1591 614.438 38.3466 615.028 38.7216C615.623 39.0966 616.085 39.6231 616.415 40.3011C616.748 40.9792 616.915 41.7727 616.915 42.6818C616.915 43.5833 616.748 44.3712 616.415 45.0455C616.085 45.7197 615.623 46.2443 615.028 46.6193C614.438 46.9943 613.748 47.1818 612.96 47.1818ZM612.96 45.9773C613.559 45.9773 614.051 45.8239 614.438 45.517C614.824 45.2102 615.11 44.8068 615.295 44.3068C615.481 43.8068 615.574 43.2652 615.574 42.6818C615.574 42.0985 615.481 41.5549 615.295 41.0511C615.11 40.5473 614.824 40.1402 614.438 39.8295C614.051 39.5189 613.559 39.3636 612.96 39.3636C612.362 39.3636 611.869 39.5189 611.483 39.8295C611.097 40.1402 610.811 40.5473 610.625 41.0511C610.439 41.5549 610.347 42.0985 610.347 42.6818C610.347 43.2652 610.439 43.8068 610.625 44.3068C610.811 44.8068 611.097 45.2102 611.483 45.517C611.869 45.8239 612.362 45.9773 612.96 45.9773ZM620.303 41.75V47H618.962V38.2727H620.257V39.6364H620.371C620.575 39.1932 620.886 38.8371 621.303 38.5682C621.719 38.2955 622.257 38.1591 622.916 38.1591C623.507 38.1591 624.024 38.2803 624.467 38.5227C624.911 38.7614 625.255 39.125 625.501 39.6136C625.748 40.0985 625.871 40.7121 625.871 41.4545V47H624.53V41.5455C624.53 40.8598 624.352 40.3258 623.996 39.9432C623.64 39.5568 623.151 39.3636 622.53 39.3636C622.102 39.3636 621.719 39.4564 621.382 39.642C621.049 39.8277 620.786 40.0985 620.592 40.4545C620.399 40.8106 620.303 41.2424 620.303 41.75ZM634.503 40.2273L633.298 40.5682C633.223 40.3674 633.111 40.1723 632.963 39.983C632.819 39.7898 632.622 39.6307 632.372 39.5057C632.122 39.3807 631.802 39.3182 631.412 39.3182C630.878 39.3182 630.433 39.4413 630.077 39.6875C629.724 39.9299 629.548 40.2386 629.548 40.6136C629.548 40.947 629.67 41.2102 629.912 41.4034C630.154 41.5966 630.533 41.7576 631.048 41.8864L632.344 42.2045C633.124 42.3939 633.705 42.6837 634.088 43.0739C634.471 43.4602 634.662 43.9583 634.662 44.5682C634.662 45.0682 634.518 45.5152 634.23 45.9091C633.946 46.303 633.548 46.6136 633.037 46.8409C632.526 47.0682 631.931 47.1818 631.253 47.1818C630.363 47.1818 629.626 46.9886 629.043 46.6023C628.459 46.2159 628.09 45.6515 627.935 44.9091L629.207 44.5909C629.329 45.0606 629.558 45.4129 629.895 45.6477C630.236 45.8826 630.681 46 631.23 46C631.855 46 632.351 45.8674 632.719 45.6023C633.09 45.3333 633.276 45.0114 633.276 44.6364C633.276 44.3333 633.17 44.0795 632.957 43.875C632.745 43.6667 632.42 43.5114 631.98 43.4091L630.526 43.0682C629.726 42.8788 629.139 42.5852 628.764 42.1875C628.393 41.786 628.207 41.2841 628.207 40.6818C628.207 40.1894 628.346 39.7538 628.622 39.375C628.902 38.9962 629.283 38.6989 629.764 38.483C630.249 38.267 630.798 38.1591 631.412 38.1591C632.276 38.1591 632.954 38.3485 633.446 38.7273C633.942 39.1061 634.295 39.6061 634.503 40.2273Z" fill="#808080"/>
</svg>
